<svg width="24" height="18" viewBox="0 0 24 18" fill="none" xmlns="http://www.w3.org/2000/svg">
<path fill-rule="evenodd" clip-rule="evenodd" d="M12 4.8C12 7.45097 9.85097 9.6 7.2 9.6C4.54903 9.6 2.4 7.45097 2.4 4.8C2.4 2.14903 4.54903 0 7.2 0C9.85097 0 12 2.14903 12 4.8ZM9.6 4.8C9.6 6.12548 8.52548 7.2 7.2 7.2C5.87452 7.2 4.8 6.12548 4.8 4.8C4.8 3.47452 5.87452 2.4 7.2 2.4C8.52548 2.4 9.6 3.47452 9.6 4.8Z" fill="white"/>
<path d="M18 4.8H20.4V8.4H24V10.8H20.4V14.4H18V10.8H14.4V8.4H18V4.8Z" fill="white"/>
<path d="M12 18H14.4C14.4 14.0236 11.1765 10.8 7.2 10.8C3.22355 10.8 0 14.0236 0 18H2.4C2.4 15.349 4.54903 13.2 7.2 13.2C9.85097 13.2 12 15.349 12 18Z" fill="white"/>
</svg>
